<svg width="140" height="140" viewBox="0 0 140 140" fill="none" xmlns="http://www.w3.org/2000/svg">
<g clip-path="url(#clip0_6117_353)">
<path fill-rule="evenodd" clip-rule="evenodd" d="M28.1583 113.318C24.0167 109.643 22.325 108.943 15.6633 113.727C12.7467 115.885 9.48001 118.866 6.85501 120.908C9.77167 99.1376 10.6467 106.61 17.6467 46.5909C17.6467 45.4242 19.7467 39.5326 18.405 38.7159C19.7467 36.4409 15.7217 33.9326 14.6717 37.7826C13.6217 41.6326 16.2467 31.9434 9.59667 67.8476C8.66334 74.7892 -1.26499 118.633 0.135008 125.988C0.222146 126.556 0.434987 127.096 0.757959 127.571C1.08093 128.045 1.50587 128.441 2.00167 128.73C6.32417 131.18 11.3467 124.705 17.2967 119.513C18.7783 117.938 20.5167 116.638 22.4358 115.658C22.6926 115.72 22.9319 115.84 23.1358 116.008C36.2142 125.58 38.0225 132.003 40.6475 132.294C41.1798 132.327 41.7036 132.149 42.1069 131.801C42.5103 131.452 42.7611 130.959 42.8058 130.428C43.4475 127.978 30.2058 115.191 28.1583 113.318Z" fill="#C43525"/>
<path fill-rule="evenodd" clip-rule="evenodd" d="M33.707 36.0267C36.682 36.5517 37.4404 25.9351 37.7904 24.9959C39.1627 21.4722 41.1365 18.2135 43.6237 15.3651C53.7854 3.16173 61.1412 12.5067 62.1912 11.8067C63.8245 14.4317 69.6637 11.1651 62.1912 6.60923C58.8091 4.19332 54.6446 3.13192 50.5187 3.63423C40.007 5.73423 35.1654 13.4926 32.6512 23.2459C31.8345 27.2126 29.7987 35.6767 33.707 36.0267ZM132.71 40.7576C132.515 40.0466 132.162 39.3888 131.677 38.8333C131.192 38.2778 130.588 37.8389 129.91 37.5492C122.766 35.4808 115.332 34.5941 107.901 34.9242C107.255 28.3524 104.968 22.0482 101.251 16.5901C91.9645 3.74506 74.7445 4.91173 68.497 15.8901C65.7383 22.1002 64.0424 28.7297 63.4804 35.5017C57.6412 35.5017 44.1545 35.8517 42.8712 37.3684C41.5879 38.8851 42.8712 53.0192 42.8712 56.6942C42.4045 72.5726 46.8379 130.486 46.8379 130.953C47.5379 134.569 49.2295 134.861 52.6712 135.211C57.6995 135.736 80.1695 136.844 88.1087 136.378C91.9004 136.378 95.6979 135.736 99.4954 135.328C105.329 134.686 117.007 136.028 125.88 135.328C130.313 134.861 138.55 133.111 139.6 128.794C141.408 122.838 136.735 52.0276 132.71 40.7576ZM74.3362 19.0984C75.843 17.0813 77.9321 15.5748 80.3217 14.782C82.7114 13.9893 85.2868 13.9485 87.7004 14.6651C96.0479 16.2984 101.304 26.6876 102.879 35.0934C91.5703 36.2176 80.1898 36.4322 68.847 35.7351C69.722 30.0067 71.4954 24.4534 74.097 19.2734L74.3362 19.0984ZM133.352 126.222C126.994 130.305 106.618 127.855 99.087 128.788C93.0396 129.709 86.934 130.197 80.817 130.247C52.2687 129.838 52.5604 131.122 52.0937 124.413C47.7187 73.3309 46.8437 66.0334 46.8437 56.8109V40.1159C52.677 40.1159 58.5104 39.7076 62.3662 40.1159C60.3245 52.1967 60.2662 53.1359 60.6162 53.8359C60.7704 54.2388 61.0308 54.5925 61.3697 54.8595C61.7086 55.1265 62.1134 55.2969 62.5412 55.3526C65.1079 55.7026 64.1745 54.0109 67.0912 40.4076C79.102 41.3642 91.1654 41.3642 103.17 40.4076C105.387 53.1359 105.154 54.4192 106.204 55.1776C106.547 55.4907 106.996 55.6643 107.461 55.6643C107.926 55.6643 108.374 55.4907 108.718 55.1776C109.301 50.3826 109.22 45.5292 108.485 40.7576C114.639 40.7809 120.764 41.6267 126.696 43.2659C126.696 43.8492 127.455 45.0159 127.688 46.1242C131.013 72.7067 132.903 99.4409 133.352 126.222Z" fill="#1A1B1F"/>
<path fill-rule="evenodd" clip-rule="evenodd" d="M37.6145 36.61L25.942 37.2517C19.1111 38.3017 21.4445 40.285 22.5003 40.5242C27.517 40.9792 32.5745 41.055 37.6145 40.7575C42.1645 39.2992 41.8145 37.9517 37.6145 36.61Z" fill="#C43525"/>
</g>
<defs>
<clipPath id="clip0_6117_353">
<rect width="140" height="140" fill="white"/>
</clipPath>
</defs>
</svg>
