<svg width="72" height="72" viewBox="0 0 72 72" fill="none" xmlns="http://www.w3.org/2000/svg">
<path d="M52.8751 23.625C51.4256 23.6184 50.0031 24.0179 48.7689 24.7781C47.8733 22.8839 46.2622 21.4228 44.2897 20.7161C42.3173 20.0094 40.1449 20.1149 38.2501 21.0094V10.125C38.2501 8.03642 37.4205 6.03338 35.9436 4.55653C34.4668 3.07969 32.4637 2.25 30.3751 2.25C28.2866 2.25 26.2835 3.07969 24.8067 4.55653C23.3298 6.03338 22.5001 8.03642 22.5001 10.125V35.8313L20.5314 32.4281C19.4983 30.6118 17.786 29.2803 15.7711 28.7265C13.7563 28.1726 11.604 28.4419 9.78765 29.475C7.97133 30.5081 6.6398 32.2204 6.08598 34.2353C5.53216 36.2501 5.80142 38.4024 6.83452 40.2188C15.9751 59.4563 22.0501 67.5 36.0001 67.5C42.562 67.4926 48.8529 64.8826 53.4928 60.2427C58.1327 55.6028 60.7427 49.3118 60.7501 42.75V31.5C60.7427 29.4137 59.9107 27.415 58.4354 25.9397C56.9602 24.4645 54.9614 23.6324 52.8751 23.625V23.625ZM56.2501 42.75C56.2427 48.1183 54.1068 53.2647 50.3108 57.0607C46.5148 60.8567 41.3685 62.9926 36.0001 63C30.3189 63 26.3814 61.4531 22.7814 57.8813C19.1814 54.3094 15.8345 48.6562 10.8845 38.2219L10.8001 38.0531C10.5727 37.6719 10.4255 37.2483 10.3675 36.8082C10.3095 36.3682 10.3418 35.9209 10.4626 35.4937C10.5743 35.0635 10.7712 34.66 11.0418 34.3074C11.3124 33.9547 11.651 33.6599 12.0376 33.4406C12.8123 32.9934 13.7329 32.872 14.597 33.1031C15.0235 33.2152 15.4228 33.4125 15.7708 33.6832C16.1189 33.9539 16.4084 34.2924 16.622 34.6781L22.8095 45.3656C23.0618 45.7899 23.445 46.1207 23.9015 46.3084C24.358 46.4961 24.8631 46.5304 25.3408 46.4062C25.8188 46.2812 26.2415 46.0003 26.542 45.6081C26.8425 45.2159 27.0037 44.7347 27.0001 44.2406V10.125C27.0001 9.22989 27.3557 8.37145 27.9887 7.73851C28.6216 7.10558 29.48 6.75 30.3751 6.75C31.2703 6.75 32.1287 7.10558 32.7616 7.73851C33.3946 8.37145 33.7501 9.22989 33.7501 10.125V29.25C33.7501 29.8467 33.9872 30.419 34.4092 30.841C34.8311 31.2629 35.4034 31.5 36.0001 31.5C36.5969 31.5 37.1692 31.2629 37.5911 30.841C38.0131 30.419 38.2501 29.8467 38.2501 29.25V28.125C38.2501 27.2299 38.6057 26.3714 39.2387 25.7385C39.8716 25.1056 40.73 24.75 41.6251 24.75C42.5203 24.75 43.3787 25.1056 44.0116 25.7385C44.6446 26.3714 45.0001 27.2299 45.0001 28.125V31.5C45.0001 32.0967 45.2372 32.669 45.6592 33.091C46.0811 33.5129 46.6534 33.75 47.2501 33.75C47.8469 33.75 48.4192 33.5129 48.8411 33.091C49.2631 32.669 49.5001 32.0967 49.5001 31.5C49.5001 30.6049 49.8557 29.7464 50.4887 29.1135C51.1216 28.4806 51.98 28.125 52.8751 28.125C53.7703 28.125 54.6287 28.4806 55.2616 29.1135C55.8946 29.7464 56.2501 30.6049 56.2501 31.5V42.75Z" fill="white"/>
</svg>
