<svg width="140" height="140" viewBox="0 0 140 140" fill="none" xmlns="http://www.w3.org/2000/svg">
<g clip-path="url(#clip0_6117_368)">
<path fill-rule="evenodd" clip-rule="evenodd" d="M62.0318 46.7366C64.5168 48.4166 67.3051 49.5891 70.2451 50.1783C74.6843 50.995 79.1876 51.4616 83.7026 51.5725C90.3742 51.5782 97.0357 51.0515 103.623 49.9975C108.267 49.4927 112.863 48.6168 117.367 47.3783C119.718 46.795 121.858 45.5642 123.544 43.8258C124.051 43.1833 124.416 42.4416 124.617 41.6486C124.818 40.8557 124.85 40.0294 124.711 39.2233C124.623 38.4764 124.486 37.736 124.303 37.0067C124.572 36.8601 124.81 36.6619 125.003 36.4233C125.273 35.9284 125.339 35.3473 125.186 34.8044C125.034 34.2615 124.675 33.7998 124.186 33.5183L123.136 32.9933C122.378 30.835 121.678 29.0267 121.444 28.385C119.876 21.3126 116.662 14.7095 112.064 9.11166C109.631 6.32101 106.635 4.0766 103.273 2.52583C98.8565 0.46584 93.9645 -0.360587 89.116 0.134164C84.3439 0.726949 79.776 2.42471 75.7751 5.0925C63.1401 13.3642 60.3402 28.3908 62.9068 29.7325C61.5068 31.813 60.2624 33.9869 59.1735 36.2542C58.5026 37.7125 58.2052 39.3108 58.2985 40.915C58.4825 42.0914 58.9094 43.2166 59.5522 44.2189C60.195 45.2212 61.0394 46.0787 62.0318 46.7366ZM79.5085 10.6283C82.7987 8.83639 86.3924 7.66948 90.1076 7.18666C93.7406 6.70199 97.4368 7.10224 100.882 8.35333C104.277 9.52 107.316 11.5267 109.737 14.175C113.489 18.4509 116.005 23.6678 117.017 29.2658C112.802 27.1101 108.345 25.4652 103.74 24.3658C100.628 23.7725 97.4695 23.4621 94.3018 23.4383C91.0642 23.2981 87.8209 23.5133 84.6301 24.08C78.2231 25.2748 72.0984 27.6654 66.576 31.1267C67.801 28.8517 63.3676 19.7108 79.3918 10.8558L79.5085 10.6283ZM64.126 36.8958C64.126 36.5458 64.4176 36.2542 64.5343 35.9625C64.7826 36.1058 65.0643 36.1813 65.351 36.1813C65.6377 36.1813 65.9194 36.1058 66.1676 35.9625C72.3505 33.1278 79.0068 31.4682 85.7968 31.0683C91.5057 30.6005 97.2485 30.757 102.923 31.535C108.494 32.3225 113.937 33.8275 119.117 36.0208C119.933 39.69 121.45 40.74 114.158 41.8425C110.433 42.4142 106.688 42.7836 102.923 42.9508C97.796 43.6508 92.3768 44.0592 87.0801 44.2925C81.8263 44.6153 76.584 44.4986 71.3535 43.9425C69.5646 43.7735 67.814 43.3206 66.1676 42.6008C64.7676 41.9592 63.426 41.3175 63.1926 40.0342C63.251 38.9317 63.5718 37.8525 64.126 36.8958Z" fill="#020202"/>
<path fill-rule="evenodd" clip-rule="evenodd" d="M110.729 63.5717C111.44 62.0278 112.024 60.4353 112.479 58.7942C112.875 57.2231 113.165 55.6306 113.348 54.0167C113.397 53.7409 113.39 53.4581 113.329 53.1849C113.267 52.9117 113.151 52.6536 112.988 52.4259C112.825 52.1981 112.618 52.0053 112.379 51.8587C112.14 51.7122 111.875 51.6149 111.598 51.5725C111.325 51.5236 111.046 51.5306 110.776 51.5931C110.507 51.6555 110.253 51.7721 110.029 51.9358C109.806 52.0995 109.619 52.3068 109.478 52.5452C109.338 52.7836 109.247 53.048 109.212 53.3225C108.862 54.7225 108.454 56.0584 107.987 57.4C107.481 58.6834 106.859 59.9064 106.12 61.0692C104.342 63.9704 101.811 66.3358 98.7969 67.9144C95.7825 69.493 92.3968 70.2258 88.9994 70.035C86.337 69.9867 83.7081 69.4324 81.2527 68.4017C77.4907 66.8701 74.3659 64.0974 72.3977 60.5442L69.3119 51.9809C69.2106 51.6229 69.0047 51.3033 68.7205 51.0631C68.4364 50.823 68.0869 50.6733 67.717 50.6331C67.3471 50.593 66.9737 50.6643 66.6446 50.838C66.3156 51.0116 66.0459 51.2796 65.8702 51.6075C65.6308 52.0417 65.5681 52.5516 65.6952 53.0309L67.8536 62.5217C69.7269 67.6735 73.4428 71.9484 78.2836 74.5209C81.5593 76.2219 85.1918 77.1215 88.8827 77.1459C91.6361 77.2159 94.3836 76.7842 96.9794 75.8625C99.9706 74.8258 102.726 73.2055 105.086 71.0956C107.446 68.9858 109.364 66.4284 110.729 63.5717Z" fill="#020202"/>
<path fill-rule="evenodd" clip-rule="evenodd" d="M93.7184 66.1908C94.4807 65.4519 95.0834 64.5983 95.5268 63.63C95.9701 62.44 96.1859 61.1741 96.1626 59.8966C96.2598 59.6038 96.2929 59.2934 96.2596 58.9867C96.2263 58.6799 96.1275 58.3839 95.9698 58.1186C95.8121 57.8534 95.5992 57.6252 95.3456 57.4494C95.0919 57.2737 94.8035 57.1545 94.4998 57.1001C94.196 57.0456 93.8842 57.057 93.5852 57.1336C93.2863 57.2102 93.0074 57.3502 92.7673 57.5441C92.5273 57.7379 92.3317 57.9811 92.1938 58.2572C92.056 58.5333 91.9791 58.8358 91.9684 59.1441C91.7273 59.673 91.4162 60.1591 91.0351 60.6025C90.3934 61.3025 87.3076 60.6025 87.1326 60.6025C86.9576 60.6025 85.7909 59.9025 85.4409 59.2025C85.4292 58.9398 85.362 58.6826 85.2439 58.4477C85.1259 58.2128 84.9595 58.0055 84.7557 57.8394C84.552 57.6733 84.3154 57.552 84.0615 57.4837C83.8077 57.4153 83.5422 57.4013 83.2826 57.4427C83.023 57.484 82.775 57.5797 82.5549 57.7236C82.3348 57.8674 82.1476 58.0561 82.0055 58.2773C81.8635 58.4985 81.7697 58.7473 81.7304 59.0072C81.6911 59.2672 81.7072 59.5325 81.7776 59.7858C81.6763 61.1325 81.923 62.4826 82.4941 63.7064C83.0651 64.9303 83.9413 65.9867 85.0384 66.7741C86.0009 67.55 87.1851 67.9991 88.4159 68.0575C89.3796 68.1159 90.3453 67.9809 91.2559 67.6603C92.1666 67.3397 93.0039 66.8401 93.7184 66.1908Z" fill="#020202"/>
<path fill-rule="evenodd" clip-rule="evenodd" d="M93.5433 103.997C92.3766 104.086 91.21 104.086 90.0433 103.997L84.5133 102.947C83.2669 102.654 82.1267 102.02 81.2209 101.115C80.3152 100.211 79.6796 99.0711 79.3858 97.825C78.0816 92.6448 77.4541 87.3173 77.5192 81.9758C77.573 81.6972 77.5646 81.4102 77.4946 81.1352C77.4245 80.8602 77.2945 80.6041 77.1139 80.3852C76.9333 80.1664 76.7065 79.9901 76.4499 79.8691C76.1932 79.7482 75.9129 79.6854 75.6292 79.6854C75.3454 79.6854 75.0651 79.7482 74.8084 79.8691C74.5518 79.9901 74.325 80.1664 74.1444 80.3852C73.9638 80.6041 73.8338 80.8602 73.7637 81.1352C73.6937 81.4102 73.6853 81.6972 73.7392 81.9758C72.2909 87.8808 71.9155 93.998 72.6308 100.036C73.2017 102.525 74.5254 104.777 76.4219 106.487C78.3184 108.196 80.6956 109.28 83.23 109.591H90.1658C91.5814 109.474 92.9794 109.241 94.36 108.891C95.7055 108.541 97.0258 108.113 98.3208 107.608C98.6125 107.608 98.7875 107.258 99.0208 107.024C99.3351 107.016 99.6398 106.915 99.8958 106.733C101.313 105.659 102.439 104.23 103.151 102.597C103.909 100.438 104.364 98.1867 104.492 95.9C104.492 94.2667 104.784 92.6333 104.784 90.9475C104.784 89.2558 104.784 88.6725 104.492 87.57C104.099 84.6432 103.375 81.7704 102.334 79.0067C102.285 78.7654 102.19 78.5361 102.052 78.332C101.914 78.1279 101.738 77.953 101.532 77.8175C101.327 77.682 101.096 77.5884 100.855 77.5422C100.613 77.496 100.364 77.4981 100.123 77.5483C99.8776 77.5893 99.643 77.6806 99.4342 77.8165C99.2254 77.9524 99.0469 78.13 98.91 78.3382C98.7731 78.5463 98.6806 78.7804 98.6385 79.026C98.5963 79.2715 98.6053 79.5231 98.665 79.765C98.5483 83.4789 98.1983 87.1675 97.615 90.8308V95.7833C98.0467 97.5158 98.2217 99.3008 98.14 101.086C98.0345 101.985 97.6697 102.834 97.09 103.53C95.9233 103.81 94.7411 103.966 93.5433 103.997Z" fill="#C43525"/>
<path d="M138.804 104.988C138.05 99.1824 136.209 93.5703 133.379 88.445C130.992 84.1217 127.737 80.3379 123.819 77.3306C119.902 74.3233 115.405 72.1574 110.612 70.9683C110.382 70.8866 110.139 70.8521 109.895 70.8669C109.652 70.8817 109.414 70.9455 109.197 71.0545C108.979 71.1635 108.785 71.3153 108.627 71.501C108.469 71.6867 108.351 71.9023 108.278 72.135C108.196 72.3685 108.161 72.6161 108.175 72.8634C108.189 73.1107 108.252 73.3526 108.361 73.5752C108.469 73.7978 108.621 73.9966 108.807 74.1599C108.994 74.3233 109.21 74.448 109.445 74.5267C117.289 77.9039 123.542 84.1552 126.922 91.9975C129.168 96.5883 130.83 101.442 131.868 106.441C133.537 114.269 134.318 122.261 134.202 130.264C134.193 130.644 134.316 131.016 134.552 131.314C124.122 130.848 112.239 129.973 101.873 129.914H91.6768C85.1551 130.206 78.6918 130.731 72.1643 131.198C72.1409 127.832 71.9462 124.469 71.581 121.123C71.2131 118.991 70.3122 116.986 68.9618 115.296C67.3449 113.432 65.1525 112.162 62.7318 111.685C58.2769 111.022 53.7577 110.904 49.2743 111.335C46.416 111.335 43.4468 111.743 40.5943 111.977C40.8389 111.716 41.0108 111.395 41.0927 111.047C41.1746 110.699 41.1637 110.336 41.061 109.993C40.711 108.768 40.4776 107.433 40.186 106.149C40.4377 106.182 40.6926 106.182 40.9443 106.149C43.1882 106.639 45.4593 106.892 47.7576 106.908C48.7299 106.884 49.6826 106.748 50.616 106.499C51.5765 106.258 52.5079 105.928 53.4101 105.508C55.4593 104.604 57.4102 103.491 59.2318 102.188H59.8735C60.4304 102.188 60.9646 101.967 61.3584 101.573C61.7522 101.179 61.9735 100.645 61.9735 100.088C62.4678 93.8097 62.4678 87.502 61.9735 81.2233C61.9735 77.49 61.3318 73.8267 60.8651 70.21C58.2985 51.9808 59.8735 51.5725 53.7601 51.2225L41.5276 50.1142C38.9026 50.1142 36.2835 49.7058 33.606 49.6475C30.9285 49.5892 28.3618 49.6475 25.7426 49.6475C5.88013 51.3392 6.34679 52.9142 3.95513 56.2333C3.56624 56.7622 3.23568 57.3261 2.96346 57.925C2.71068 58.5239 2.51624 59.1442 2.38013 59.7858V82.0925C2.3481 85.3272 2.70057 88.5543 3.43013 91.7058C4.33429 95.4217 5.62346 99.0325 7.28013 102.48C7.42901 102.955 7.75097 103.356 8.18212 103.605C8.61327 103.853 9.12209 103.931 9.60763 103.822C9.89283 104.049 10.2367 104.191 10.5993 104.23C11.9487 104.872 13.3468 105.397 14.7935 105.805C15.3885 105.894 15.9912 105.894 16.6018 105.805H18.4043L21.1985 104.988L23.3568 112.268C23.4892 112.597 23.7126 112.882 24.0009 113.088C24.2891 113.295 24.6302 113.415 24.9843 113.435C20.8485 113.96 16.7126 114.485 12.5768 114.777C9.48513 114.777 6.75513 115.127 3.37179 115.185C3.12518 115.169 2.87792 115.204 2.64527 115.287C2.41262 115.371 2.19952 115.501 2.01913 115.67C1.83874 115.838 1.69488 116.043 1.59645 116.269C1.49801 116.496 1.44708 116.74 1.44679 116.988V117.688C1.19568 117.857 0.986773 118.082 0.836104 118.345C0.685436 118.608 0.597014 118.902 0.577627 119.204C0.318395 122.224 0.240478 125.257 0.344293 128.287C0.466793 129.949 1.00929 131.553 1.91929 132.948C3.22596 134.797 5.02263 136.243 7.09929 137.142C9.79429 138.367 12.6643 139.16 15.6043 139.469C20.2165 139.948 24.8385 140.103 29.4701 139.936C36.2251 139.936 42.986 138.711 49.6243 138.244L63.251 136.728C63.8122 136.683 64.3337 136.42 64.7043 135.996C65.0748 135.572 65.265 135.021 65.2343 134.458C65.2122 134.175 65.1342 133.898 65.0048 133.644C64.8754 133.391 64.6972 133.166 64.4803 132.981C64.2634 132.797 64.0122 132.657 63.7412 132.57C63.4701 132.483 63.1846 132.451 62.901 132.475H16.1876C13.8784 132.513 11.578 132.18 9.37429 131.489C8.06499 131.25 6.85088 130.643 5.87429 129.739C5.146 128.796 4.70271 127.665 4.59679 126.478C4.24679 123.912 4.59679 121.123 4.59679 119.14C11.9977 119.758 19.4268 119.973 26.851 119.782H36.1668C40.7751 119.782 45.4301 119.14 49.9743 118.965C53.4238 118.433 56.9082 118.16 60.3985 118.148C62.0843 118.014 63.7526 118.539 65.0593 119.607C66.226 120.884 66.961 122.494 67.1593 124.209C67.6843 126.834 67.801 129.57 68.2093 132.073C67.755 132.115 67.3321 132.323 67.0204 132.656C66.7088 132.989 66.5299 133.425 66.5176 133.881C66.5192 134.375 66.7165 134.848 67.0664 135.197C67.4163 135.546 67.8902 135.742 68.3843 135.742H71.1201C78.1085 136.208 85.0385 136.792 92.0268 137.083H112.356C120.278 137.083 128.199 136.267 136.121 135.858C136.683 135.843 137.217 135.609 137.61 135.206C138.002 134.803 138.221 134.262 138.221 133.7C138.214 133.176 138.005 132.674 137.638 132.3C137.949 132.143 138.218 131.913 138.421 131.63C138.624 131.346 138.756 131.018 138.804 130.673C140.006 122.156 140.006 113.505 138.804 104.988ZM54.3376 64.2133C54.1626 67.2778 54.1626 70.3461 54.3376 73.4183C54.3376 77.1458 55.096 80.815 55.621 84.4842C56.321 89.2617 57.0793 93.975 57.6043 98.6942C55.621 99.1609 53.7543 99.2775 51.7768 99.5692L50.2601 99.8608C50.2601 96.7108 50.7851 93.5725 50.9018 90.4225C50.9851 88.7163 50.9851 87.0071 50.9018 85.3008C50.8023 83.5803 50.6075 81.8665 50.3185 80.1675C49.6768 76.7258 48.7843 73.3483 47.641 70.035C48.1987 69.9237 48.6965 69.6125 49.041 69.16C50.6743 67.7075 52.1326 66.4825 53.5268 64.9717C53.8185 64.7383 54.0518 64.2133 54.3435 64.2133M5.88596 65.73C6.95121 64.6485 7.94498 63.4989 8.86096 62.2883C9.20707 61.7983 9.49679 61.2733 9.73013 60.7133C9.73013 60.13 10.0801 59.6108 10.1968 59.0275C10.3135 58.4442 10.6051 56.7525 10.8385 55.65C15.9018 56 20.8543 56.5833 25.9818 56.8167H33.6585C36.2835 56.8167 38.9026 56.525 41.5218 56.35L52.121 55.5917L50.7793 56.9917C50.1882 57.575 49.6826 58.2361 49.2626 58.975C48.7843 59.675 48.3585 60.412 47.9851 61.1858C47.2851 62.7025 46.7018 64.2133 46.0601 65.7242C41.3077 64.6502 36.4785 63.95 31.6168 63.63C29.5416 63.519 27.462 63.519 25.3868 63.63C23.2868 63.63 21.251 63.63 19.151 64.0383C14.5543 64.5633 10.0685 65.555 5.58263 66.3717C5.52429 65.9633 5.87429 65.905 5.87429 65.73M30.9226 112.793L25.8476 113.318C26.2648 113.16 26.6058 112.849 26.8009 112.448C26.9961 112.046 27.0307 111.586 26.8976 111.16C26.4941 109.39 26.1825 107.601 25.9643 105.799C25.9643 103.991 25.556 102.188 25.4393 100.386C25.1633 97.9099 25.0095 95.4219 24.9785 92.9308C24.9372 91.6036 25.1348 90.2798 25.5618 89.0225C25.5618 88.3225 25.9118 87.8033 26.3201 87.8033C26.7658 87.8918 27.1858 88.0793 27.5493 88.3519C27.9128 88.6245 28.2104 88.9753 28.4201 89.3783C30.141 91.8283 31.5118 94.5175 32.4918 97.3583C34.2418 102.072 35.5251 107.141 37.3276 111.51C37.3276 111.86 37.7943 112.035 38.0276 112.268C35.636 112.443 33.2501 112.56 30.9226 112.793ZM37.5085 93.3333C36.7565 90.6752 35.6582 88.1275 34.2418 85.7558C33.4306 84.3789 32.2969 83.2198 30.9383 82.3784C29.5796 81.537 28.0368 81.0385 26.4426 80.9258C24.6266 80.9141 22.8649 81.5446 21.4687 82.7059C20.0725 83.8673 19.1318 85.4847 18.8126 87.2725C18.3693 89.2559 18.2468 91.3033 18.4626 93.3333C18.7737 95.4567 19.221 97.5528 19.8043 99.6217C19.2103 99.434 18.6066 99.2783 17.996 99.155C17.4126 99.0967 16.8293 99.0967 16.246 99.155C15.6446 99.0965 15.039 99.0965 14.4376 99.155C13.1942 99.4807 11.9865 99.9302 10.8326 100.497C10.285 97.1978 9.91498 93.8719 9.72429 90.5334C9.72429 88.1417 9.72429 85.6975 9.08263 83.3117C8.49929 79.0592 7.50763 75.04 6.86596 71.0208C6.83789 70.6654 6.71722 70.3235 6.51596 70.0292C11.416 70.0292 16.3043 70.6125 21.3735 70.6125H30.9868C35.006 70.0292 39.311 70.0292 43.4468 70.0292V85.645C43.4468 87.2784 43.4468 88.9642 43.9135 90.65C44.3801 94.15 44.9051 97.5858 45.4301 101.08C43.9135 101.663 42.4551 102.363 40.7693 102.888C40.3281 102.91 39.9113 103.097 39.6026 103.413C39.0776 100.011 38.3835 96.6506 37.5085 93.3333Z" fill="#020202"/>
<path d="M121.678 116.637C121.911 114.506 122.028 112.369 122.028 110.227V103.763C121.619 98.8108 120.803 93.9166 119.986 88.97C119.956 88.4697 119.732 88.0008 119.361 87.6632C118.991 87.3255 118.504 87.1455 118.003 87.1616C117.758 87.1772 117.519 87.2409 117.298 87.349C117.078 87.4572 116.881 87.6076 116.72 87.7918C116.558 87.976 116.433 88.1903 116.354 88.4225C116.275 88.6547 116.243 88.9002 116.258 89.145C116.258 94.9666 115.325 100.327 115.092 105.916V124.267C116.317 129.162 118.183 129.337 120.919 124.267C121.094 121.409 121.444 118.907 121.678 116.637Z" fill="#C43525"/>
</g>
<defs>
<clipPath id="clip0_6117_368">
<rect width="140" height="140" fill="white"/>
</clipPath>
</defs>
</svg>
