<svg width="24" height="24" viewBox="0 0 24 24" fill="none" xmlns="http://www.w3.org/2000/svg">
<path d="M8.99072 5.625C10.0263 5.625 10.8657 4.78553 10.8657 3.75C10.8657 2.71447 10.0263 1.875 8.99072 1.875C7.95519 1.875 7.11572 2.71447 7.11572 3.75C7.11572 4.78553 7.95519 5.625 8.99072 5.625Z" stroke="#1A1B1F" stroke-width="1.5" stroke-linecap="round" stroke-linejoin="round"/>
<path d="M8.99072 5.625V12.375H17.2407L20.2407 18.375L22.4907 17.625" stroke="#1A1B1F" stroke-width="1.5" stroke-linecap="round" stroke-linejoin="round"/>
<path d="M15.7314 15.375C15.6583 16.5433 15.2449 17.6647 14.5424 18.6011C13.8398 19.5374 12.8787 20.2478 11.7774 20.6446C10.6761 21.0415 9.48277 21.1076 8.34441 20.8347C7.20606 20.5618 6.17239 19.9618 5.37076 19.1088C4.56913 18.2557 4.03455 17.1868 3.83288 16.0337C3.63121 14.8806 3.77125 13.6936 4.23576 12.6191C4.70028 11.5446 5.46896 10.6295 6.44713 9.98641C7.42529 9.34334 8.5702 9.00046 9.74081 9H14.9908" stroke="#1A1B1F" stroke-width="1.5" stroke-linecap="round" stroke-linejoin="round"/>
</svg>
